<?xml version="1.0" standalone="no"?>
<!DOCTYPE svg PUBLIC "-//W3C//DTD SVG 20010904//EN"
 "http://www.w3.org/TR/2001/REC-SVG-20010904/DTD/svg10.dtd">
<svg version="1.0" xmlns="http://www.w3.org/2000/svg"
 width="56.000000pt" height="50.000000pt" viewBox="0 0 56.000000 50.000000"
 preserveAspectRatio="xMidYMid meet">

<g transform="translate(0.000000,50.000000) scale(0.100000,-0.100000)"
fill="#000000" stroke="none">
<path d="M34 483 c-6 -4 -15 -19 -19 -33 -6 -23 -6 -24 7 -7 13 17 27 18 135
15 119 -3 122 -4 153 -33 17 -16 35 -45 41 -65 11 -37 10 -37 99 -41 40 -2 62
-21 73 -64 3 -12 5 -5 6 16 1 41 -23 69 -60 69 -13 0 -40 3 -61 6 -32 6 -38
12 -53 50 -28 73 -60 88 -195 92 -63 2 -120 -1 -126 -5z"/>
<path d="M40 327 l5 -92 3 84 c2 46 -1 88 -5 92 -4 5 -6 -33 -3 -84z"/>
<path d="M154 407 c-2 -7 -3 -58 -2 -113 3 -95 4 -99 26 -102 25 -4 62 23 62
45 0 8 -7 6 -21 -8 -11 -11 -28 -19 -37 -17 -14 3 -17 19 -20 102 l-3 98 25
-4 c14 -3 23 -1 20 3 -8 14 -44 10 -50 -4z"/>
<path d="M243 300 c0 -25 2 -35 4 -22 2 12 2 32 0 45 -2 12 -4 2 -4 -23z"/>
<path d="M376 261 c-12 -18 10 -37 58 -51 49 -14 78 -40 94 -85 l10 -30 1 28
c1 42 -35 101 -63 103 -34 2 -77 18 -85 31 -6 11 -10 12 -15 4z"/>
<path d="M442 254 c10 -10 20 -16 22 -13 3 3 -5 11 -17 18 -21 13 -21 12 -5
-5z"/>
<path d="M18 205 c-20 -27 -22 -41 -9 -49 5 -4 7 3 4 14 -4 14 0 20 11 20 9 0
16 8 16 20 0 25 -1 25 -22 -5z"/>
<path d="M257 153 c9 -3 5 -15 -13 -39 -15 -18 -30 -32 -34 -29 -11 7 -23 -12
-15 -25 9 -14 54 21 55 42 0 32 20 29 54 -7 28 -30 41 -36 67 -33 18 2 34 8
36 14 2 7 -8 9 -27 6 -25 -4 -37 3 -71 37 -23 22 -46 41 -53 40 -7 0 -7 -2 1
-6z"/>
<path d="M290 156 c0 -2 8 -10 18 -17 15 -13 16 -12 3 4 -13 16 -21 21 -21 13z"/>
<path d="M38 143 c7 -3 16 -2 19 1 4 3 -2 6 -13 5 -11 0 -14 -3 -6 -6z"/>
<path d="M168 143 c7 -3 16 -2 19 1 4 3 -2 6 -13 5 -11 0 -14 -3 -6 -6z"/>
<path d="M164 118 c3 -10 1 -20 -4 -23 -6 -4 -9 -16 -9 -28 1 -20 2 -21 6 -2
3 11 9 25 14 30 4 6 3 17 -3 25 -8 12 -9 12 -4 -2z"/>
<path d="M210 120 c-13 -8 -12 -10 3 -10 9 0 17 5 17 10 0 12 -1 12 -20 0z"/>
<path d="M511 67 c-13 -21 -12 -21 5 -5 10 10 16 20 13 22 -3 3 -11 -5 -18
-17z"/>
<path d="M252 46 c7 -8 15 -12 17 -11 5 6 -10 25 -20 25 -5 0 -4 -6 3 -14z"/>
<path d="M183 33 c9 -2 23 -2 30 0 6 3 -1 5 -18 5 -16 0 -22 -2 -12 -5z"/>
<path d="M475 30 c-3 -6 1 -7 9 -4 18 7 21 14 7 14 -6 0 -13 -4 -16 -10z"/>
<path d="M368 3 c12 -2 30 -2 40 0 9 3 -1 5 -23 4 -22 0 -30 -2 -17 -4z"/>
</g>
</svg>
